<svg viewBox="0 0 48 48" fill="none" xmlns="http://www.w3.org/2000/svg">
  <rect width="48" height="48" rx="10" fill="#0f172a"/>
  <circle cx="24" cy="24" r="18" stroke="#94a3b8" stroke-opacity="0.5" stroke-width="1.5" stroke-dasharray="2.4 3.8"/>
  <g stroke="#cbd5e1" stroke-opacity="0.75" stroke-width="1.5" stroke-linecap="round">
    <line x1="24" y1="24" x2="24" y2="12"/>
    <line x1="24" y1="24" x2="36" y2="24"/>
    <line x1="24" y1="24" x2="24" y2="36"/>
    <line x1="24" y1="24" x2="12" y2="24"/>
    <line x1="24" y1="24" x2="16.5" y2="16.5"/>
    <line x1="24" y1="24" x2="16.5" y2="31.5"/>
    <line x1="24" y1="24" x2="31.5" y2="31.5"/>
  </g>
  <g stroke="#e2e8f0" stroke-width="1.5" fill="none">
    <circle cx="24" cy="10.6" r="1.7"/>
    <circle cx="37.4" cy="24" r="1.7"/>
    <circle cx="24" cy="37.4" r="1.7"/>
    <circle cx="10.6" cy="24" r="1.7"/>
    <circle cx="15.2" cy="15.2" r="1.4"/>
    <circle cx="15.2" cy="32.8" r="1.4"/>
    <circle cx="32.8" cy="32.8" r="1.4"/>
  </g>
  <g stroke="#818cf8" fill="#818cf8">
    <line x1="24" y1="24" x2="33.4" y2="14.6" stroke-width="2.4" stroke-linecap="round"/>
    <path d="M36.6 11.4 L35 17.2 L30.8 13 Z" stroke="none"/>
    <circle cx="36.6" cy="11.4" r="2.2" stroke="none"/>
  </g>
  <circle cx="24" cy="24" r="2.6" fill="#e2e8f0"/>
  <circle cx="24" cy="24" r="1" fill="#818cf8"/>
</svg>
